# xmcd
#
# Track frame offsets: 
#        150
#        17167
#        35489
#        64232
#        98139
#        111502
#        142057
#        161376
#        187791
#        202214
#        239928
#        257102
#
# Disc length: 3724 seconds
#
# Revision: 0
# Processed by: cddbd v1.5.2PL0 Copyright (c) Steve Scherf et al.
# Submitted via: ExactAudioCopyFreeDBPlugin 1.0
#
DISCID=b50e8a0c
DTITLE=Jimi Hendrix - Valleys Of Neptune
DYEAR=1900
DGENRE=Blues
TTITLE0=Stone Free
TTITLE1=Valleya Of Neptune
TTITLE2=Bleeding Heart
TTITLE3=Hear Ma Train A Comin
TTITLE4=Mr. Bad Luck
TTITLE5=Sunshine Of Your Love
TTITLE6=Lover Man
TTITLE7=Ships Passing Through The Night
TTITLE8=Fire
TTITLE9=Red House
TTITLE10=Lullaby For The Summer
TTITLE11=Crying Blue Rain
EXTD=
EXTT0=
EXTT1=
EXTT2=
EXTT3=
EXTT4=
EXTT5=
EXTT6=
EXTT7=
EXTT8=
EXTT9=
EXTT10=
EXTT11=
PLAYORDER=
